<?xml version="1.0" encoding="utf-8"?>
<!-- Generator: Adobe Illustrator 26.5.0, SVG Export Plug-In . SVG Version: 6.00 Build 0)  -->
<svg version="1.1" xmlns="http://www.w3.org/2000/svg" xmlns:xlink="http://www.w3.org/1999/xlink" x="0px" y="0px"
	 viewBox="0 0 1391.99 991.32" style="enable-background:new 0 0 1391.99 991.32;" xml:space="preserve">
<style type="text/css">
	.st0{fill:#7998C6;}
	.st1{fill:#D6ABEF;}
	.st2{fill:#2C2334;}
	.st3{fill:#FBF7FF;}
	.st4{fill:url(#SVGID_1_);}
	.st5{fill:#FFFFFF;}
	.st6{fill:#00B7D5;}
	.st7{fill:#B899A3;}
</style>
<g id="Layer_3">
</g>
<g id="Layer_4">
	<circle class="st0" cx="824.37" cy="687.39" r="270.39"/>
	<circle class="st1" cx="399.51" cy="303.93" r="270.39"/>
	<g>
		<path class="st2" d="M1178.72,457.99c0-14-11.39-25.39-25.39-25.39c-14,0-25.38,11.39-25.38,25.39c0,14,11.39,25.39,25.38,25.39
			C1167.33,483.38,1178.72,471.99,1178.72,457.99z M1131.08,457.99c0-12.27,9.98-22.26,22.25-22.26c12.27,0,22.26,9.99,22.26,22.26
			c0,12.27-9.99,22.26-22.26,22.26C1141.06,480.25,1131.08,470.26,1131.08,457.99z"/>
	</g>
	<g>
		
			<rect x="427.58" y="222.34" transform="matrix(-0.7071 -0.7071 0.7071 -0.7071 567.8774 702.5142)" class="st2" width="3.69" height="22.61"/>
		
			<rect x="427.58" y="222.34" transform="matrix(-0.7071 0.7071 -0.7071 -0.7071 898.3007 95.2198)" class="st2" width="3.69" height="22.61"/>
	</g>
	<g>
		<rect x="456.51" y="281.08" class="st2" width="2.43" height="14.9"/>
		
			<rect x="456.51" y="281.08" transform="matrix(6.123234e-17 -1 1 6.123234e-17 169.204 746.2568)" class="st2" width="2.43" height="14.9"/>
	</g>
	<g>
		
			<rect x="735.09" y="228.42" transform="matrix(-1 -1.224647e-16 1.224647e-16 -1 1471.8724 467.1658)" class="st2" width="1.69" height="10.33"/>
		
			<rect x="735.09" y="228.42" transform="matrix(-1.836970e-16 1 -1 -1.836970e-16 969.5191 -502.3533)" class="st2" width="1.69" height="10.33"/>
	</g>
	<g>
		<path class="st2" d="M1209.51,240.77c0,3.62,1.41,7.02,3.97,9.58c2.56,2.56,5.96,3.97,9.58,3.97c3.62,0,7.02-1.41,9.58-3.97
			c2.56-2.56,3.97-5.96,3.97-9.58c0-3.62-1.41-7.02-3.97-9.58c-2.56-2.56-5.96-3.97-9.58-3.97c-3.62,0-7.02,1.41-9.58,3.97
			C1210.92,233.74,1209.51,237.15,1209.51,240.77z M1233.28,240.77c0,2.73-1.06,5.3-2.99,7.23c-1.93,1.93-4.5,2.99-7.23,2.99
			c-2.73,0-5.3-1.06-7.23-2.99c-1.93-1.93-2.99-4.5-2.99-7.23c0-2.73,1.06-5.3,2.99-7.23c1.93-1.93,4.5-2.99,7.23-2.99
			c2.73,0,5.3,1.06,7.23,2.99C1232.21,235.47,1233.28,238.04,1233.28,240.77z"/>
	</g>
	<g>
		<path class="st3" d="M399.51,722.83c0-3.22,2.06-4.83,3.88-6.25c1.68-1.31,3.13-2.45,3.13-4.72c0-2.27-1.45-3.4-3.13-4.72
			c-1.82-1.42-3.88-3.03-3.88-6.25c0-3.22,2.06-4.83,3.88-6.25c1.68-1.31,3.13-2.45,3.13-4.72s-1.45-3.4-3.13-4.72
			c-1.82-1.42-3.88-3.03-3.88-6.25c0-3.22,2.06-4.83,3.88-6.25c1.68-1.31,3.13-2.45,3.13-4.71c0-2.27-1.45-3.4-3.13-4.71
			c-1.82-1.42-3.88-3.03-3.88-6.25c0-3.22,2.06-4.83,3.88-6.25c1.68-1.31,3.13-2.45,3.13-4.71c0-2.26-1.45-3.4-3.13-4.71
			c-1.82-1.42-3.88-3.03-3.88-6.25c0-3.22,2.06-4.83,3.88-6.25c1.68-1.31,3.13-2.45,3.13-4.72h1.95c0,3.22-2.06,4.83-3.88,6.25
			c-1.68,1.31-3.13,2.45-3.13,4.72c0,2.26,1.45,3.4,3.13,4.71c1.82,1.42,3.88,3.03,3.88,6.25c0,3.22-2.06,4.83-3.88,6.25
			c-1.68,1.31-3.13,2.45-3.13,4.71c0,2.27,1.45,3.4,3.13,4.71c1.82,1.42,3.88,3.03,3.88,6.25c0,3.22-2.06,4.83-3.88,6.25
			c-1.68,1.31-3.13,2.45-3.13,4.71c0,2.27,1.45,3.4,3.13,4.72c1.82,1.42,3.88,3.03,3.88,6.25c0,3.22-2.06,4.83-3.88,6.25
			c-1.68,1.31-3.13,2.45-3.13,4.72c0,2.27,1.45,3.4,3.13,4.72c1.82,1.42,3.88,3.03,3.88,6.25c0,3.22-2.06,4.83-3.88,6.25
			c-1.68,1.31-3.13,2.45-3.13,4.72c0,2.27,1.45,3.4,3.13,4.72c1.82,1.42,3.88,3.04,3.88,6.25h-1.95c0-2.27-1.45-3.4-3.13-4.72
			C401.57,727.66,399.51,726.05,399.51,722.83z"/>
	</g>
	<g>
		<path class="st3" d="M417.91,756.41c0-3.22,2.06-4.83,3.88-6.25c1.68-1.31,3.13-2.45,3.13-4.72c0-2.27-1.45-3.4-3.13-4.72
			c-1.82-1.42-3.88-3.03-3.88-6.25c0-3.22,2.06-4.83,3.88-6.25c1.68-1.31,3.13-2.45,3.13-4.72s-1.45-3.4-3.13-4.72
			c-1.82-1.42-3.88-3.03-3.88-6.25c0-3.22,2.06-4.83,3.88-6.25c1.68-1.31,3.13-2.45,3.13-4.71c0-2.27-1.45-3.4-3.13-4.71
			c-1.82-1.42-3.88-3.03-3.88-6.25c0-3.22,2.06-4.83,3.88-6.25c1.68-1.31,3.13-2.45,3.13-4.71c0-2.26-1.45-3.4-3.13-4.71
			c-1.82-1.42-3.88-3.03-3.88-6.25c0-3.22,2.06-4.83,3.88-6.25c1.68-1.31,3.13-2.45,3.13-4.72h1.95c0,3.22-2.06,4.83-3.88,6.25
			c-1.68,1.31-3.13,2.45-3.13,4.72c0,2.26,1.45,3.4,3.13,4.71c1.82,1.42,3.88,3.03,3.88,6.25c0,3.22-2.06,4.83-3.88,6.25
			c-1.68,1.31-3.13,2.45-3.13,4.71c0,2.27,1.45,3.4,3.13,4.71c1.82,1.42,3.88,3.03,3.88,6.25c0,3.22-2.06,4.83-3.88,6.25
			c-1.68,1.31-3.13,2.45-3.13,4.71c0,2.27,1.45,3.4,3.13,4.72c1.82,1.42,3.88,3.03,3.88,6.25c0,3.22-2.06,4.83-3.88,6.25
			c-1.68,1.31-3.13,2.45-3.13,4.72c0,2.27,1.45,3.4,3.13,4.72c1.82,1.42,3.88,3.03,3.88,6.25c0,3.22-2.06,4.83-3.88,6.25
			c-1.68,1.31-3.13,2.45-3.13,4.72c0,2.27,1.45,3.4,3.13,4.72c1.82,1.42,3.88,3.04,3.88,6.25h-1.95c0-2.27-1.45-3.4-3.13-4.72
			C419.98,761.24,417.91,759.63,417.91,756.41z"/>
	</g>
	<g>
		<rect x="1180.92" y="319.27" class="st2" width="68.19" height="4.1"/>
	</g>
	<g>
		<rect x="1145.44" y="303.93" class="st2" width="68.19" height="4.1"/>
	</g>
	<g>
		<rect x="200.21" y="659.32" class="st2" width="38.94" height="4.1"/>
	</g>
	<g>
		<rect x="234.31" y="685.34" class="st2" width="38.94" height="4.1"/>
	</g>
	<g>
		<rect x="612.92" y="373.14" class="st2" width="40.35" height="2.42"/>
	</g>
	<g>
		<rect x="588.55" y="362.55" class="st2" width="40.35" height="2.42"/>
	</g>
	
		<linearGradient id="SVGID_1_" gradientUnits="userSpaceOnUse" x1="3471.0837" y1="603.2324" x2="3503.7314" y2="603.2324" gradientTransform="matrix(1 0 0 1 -2371.2742 0)">
		<stop  offset="5.347590e-03" style="stop-color:#FFC940"/>
		<stop  offset="1" style="stop-color:#F76A1E"/>
	</linearGradient>
	<circle class="st4" cx="1116.13" cy="603.23" r="16.32"/>
	
		<ellipse transform="matrix(0.1602 -0.9871 0.9871 0.1602 546.4047 1548.6708)" class="st2" cx="1183.32" cy="453.22" rx="22.07" ry="22.07"/>
	<g>
		<path class="st2" d="M254.95,505.65c0-14-11.39-25.39-25.39-25.39c-14,0-25.38,11.39-25.38,25.39c0,14,11.39,25.39,25.38,25.39
			C243.56,531.04,254.95,519.65,254.95,505.65z M207.31,505.65c0-12.27,9.98-22.26,22.25-22.26c12.27,0,22.26,9.99,22.26,22.26
			c0,12.27-9.99,22.26-22.26,22.26C217.29,527.91,207.31,517.93,207.31,505.65z"/>
	</g>
	<circle class="st2" cx="254.95" cy="495.15" r="22.07"/>
	<g>
		
			<rect x="646.46" y="647.65" transform="matrix(-0.7071 -0.7071 0.7071 -0.7071 641.3239 1581.0808)" class="st2" width="3.29" height="20.14"/>
		
			<rect x="646.46" y="647.65" transform="matrix(-0.7071 0.7071 -0.7071 -0.7071 1571.4631 664.5422)" class="st2" width="3.29" height="20.14"/>
	</g>
	<g>
		<rect x="747.02" y="723.87" class="st2" width="94.64" height="94.64"/>
		<g>
			<path class="st2" d="M794.89,742.93v97.03h97.03v-97.03H794.89z M797.27,837.57v-92.25h92.25v92.25H797.27z"/>
		</g>
		<g>
			
				<rect x="826.48" y="698.23" transform="matrix(0.7071 -0.7071 0.7071 0.7071 -248.1932 799.9028)" class="st2" width="29.99" height="2.64"/>
		</g>
		<g>
			
				<rect x="848.25" y="692.56" transform="matrix(0.7071 -0.7071 0.7071 0.7071 -238.3744 812.2711)" class="st2" width="26.12" height="2.64"/>
		</g>
	</g>
	<g>
		<g>
			<g>
				<path class="st2" d="M548.56,796.45l-158.05,10.38c-17.24,1.13-32.19-11.98-33.32-29.22l-25.37-386.4
					c-1.13-17.24,11.97-32.19,29.22-33.32l158.05-10.38c17.24-1.13,32.19,11.98,33.32,29.22l25.37,386.4
					C578.91,780.37,565.8,795.32,548.56,796.45z M361.82,369.92c-10.61,0.7-18.67,9.89-17.98,20.5l25.37,386.4
					c0.7,10.61,9.89,18.67,20.5,17.97l158.05-10.38c10.61-0.7,18.67-9.89,17.97-20.5l-25.37-386.4c-0.7-10.61-9.89-18.67-20.5-17.97
					L361.82,369.92z"/>
				<g>
					<path class="st5" d="M548.16,790.43l-158.05,10.38c-13.95,0.92-26-9.65-26.91-23.6l-25.37-386.4
						c-0.92-13.95,9.65-26,23.6-26.91l158.05-10.38c13.95-0.92,26,9.65,26.91,23.6l25.37,386.4
						C572.68,777.47,562.11,789.52,548.16,790.43z"/>
					<path class="st2" d="M388.43,802.17c-13.97,0-25.62-10.93-26.53-24.87l-25.37-386.4c-0.96-14.64,10.17-27.34,24.81-28.3
						l158.05-10.38c14.75-0.97,27.35,10.28,28.3,24.81l25.37,386.4c0.47,7.09-1.86,13.95-6.54,19.29
						c-4.69,5.35-11.18,8.55-18.27,9.01L390.2,802.11C389.61,802.15,389.02,802.17,388.43,802.17z M521.16,354.78
						c-0.53,0-1.06,0.02-1.6,0.05l-158.05,10.38c-13.21,0.87-23.25,12.32-22.38,25.52l25.37,386.4
						c0.86,13.1,12.25,23.27,25.52,22.38l158.05-10.38c6.4-0.42,12.25-3.31,16.48-8.12c4.23-4.82,6.32-11,5.9-17.4l-25.37-386.4
						C544.26,364.63,533.75,354.78,521.16,354.78z"/>
				</g>
				<g>
					<polygon class="st2" points="364.93,430.09 356.67,421.93 363.79,412.77 365.4,414.03 359.4,421.76 366.36,428.63 					"/>
				</g>
				<g>
					<g>
						
							<rect x="352.02" y="432.85" transform="matrix(0.9979 -0.0655 0.0655 0.9979 -37.2085 31.073)" class="st5" width="206.31" height="300.04"/>
						<path class="st2" d="M360.85,740.71l-0.08-1.3l-19.74-300.7l208.48-13.69l0.08,1.3l19.74,300.7L360.85,740.71z M343.8,441.15
							l19.49,296.79l203.26-13.34L547.07,427.8L343.8,441.15z"/>
					</g>
				</g>
			</g>
			<g>
				<path class="st2" d="M548.25,791.77L390.2,802.15c-14.66,0.96-27.38-10.18-28.34-24.85L336.5,390.9
					c-0.96-14.66,10.18-27.37,24.85-28.34l158.05-10.38c14.66-0.96,27.37,10.18,28.34,24.85l25.37,386.4
					C574.06,778.1,562.91,790.81,548.25,791.77z M361.52,365.24c-13.19,0.87-23.21,12.3-22.35,25.49l25.37,386.4
					c0.87,13.19,12.3,23.21,25.49,22.35l158.05-10.38c13.19-0.87,23.21-12.3,22.35-25.49l-25.37-386.4
					c-0.87-13.19-12.3-23.21-25.49-22.35L361.52,365.24z"/>
			</g>
			<path class="st2" d="M496.4,377.41c0.19,2.88-1.99,5.36-4.86,5.55c-2.88,0.19-5.36-1.99-5.55-4.86
				c-0.19-2.88,1.99-5.36,4.86-5.55C493.72,372.35,496.21,374.53,496.4,377.41z"/>
			<path class="st2" d="M512.02,376.38c0.19,2.88-1.99,5.36-4.86,5.55c-2.88,0.19-5.36-1.99-5.55-4.86
				c-0.19-2.88,1.99-5.36,4.86-5.55C509.34,371.33,511.83,373.5,512.02,376.38z"/>
			<path class="st2" d="M527.63,375.35c0.19,2.88-1.99,5.36-4.86,5.55c-2.88,0.19-5.36-1.99-5.55-4.86
				c-0.19-2.88,1.99-5.36,4.86-5.55S527.45,372.48,527.63,375.35z"/>
			<path class="st2" d="M530.29,410.54c0.29,4.41-3.05,8.21-7.46,8.5c-4.41,0.29-8.21-3.05-8.5-7.46c-0.29-4.41,3.05-8.21,7.46-8.5
				C526.19,402.79,530,406.13,530.29,410.54z"/>
			<path class="st2" d="M489.55,415.28l17.64-1.16c1.14-0.07,2-1.06,1.93-2.2l0,0c-0.07-1.14-1.06-2-2.2-1.93l-17.64,1.16
				c-1.14,0.07-2,1.06-1.93,2.2l0,0C487.42,414.5,488.41,415.36,489.55,415.28z"/>
			<g>
				<path class="st5" d="M542.21,765.87l-149.41,9.81c-5.62,0.37-10.48-3.89-10.85-9.51l0,0c-0.37-5.62,3.89-10.48,9.51-10.85
					l149.41-9.81c5.62-0.37,10.48,3.89,10.85,9.51l0,0C552.09,760.64,547.84,765.5,542.21,765.87z"/>
				<path class="st2" d="M392.12,776.37c-5.7,0-10.46-4.46-10.83-10.15c-0.19-2.9,0.76-5.69,2.67-7.88
					c1.91-2.18,4.56-3.49,7.46-3.68l149.41-9.81c6.02-0.45,11.17,4.2,11.56,10.13c0.19,2.9-0.76,5.69-2.67,7.88
					c-1.91,2.18-4.56,3.49-7.46,3.68l-149.41,9.81C392.6,776.36,392.36,776.37,392.12,776.37z M541.56,746.15
					c-0.21,0-0.42,0.01-0.63,0.02l-149.41,9.81c-2.54,0.17-4.87,1.31-6.55,3.23c-1.68,1.92-2.51,4.37-2.35,6.91
					c0.34,5.21,4.89,9.2,10.14,8.89l149.41-9.81c2.54-0.17,4.87-1.31,6.55-3.23c1.68-1.92,2.51-4.37,2.35-6.91
					C550.73,750.07,546.56,746.15,541.56,746.15z"/>
			</g>
			<g>
				<g>
					<g>
						<g>
							<path class="st2" d="M540.84,756.11l-0.1-1.57l-0.93,0.06l0.1,1.57c0.12,1.87-1.3,3.5-3.17,3.62
								c-1.87,0.12-3.5-1.3-3.62-3.17l-0.1-1.57l-0.93,0.06l0.1,1.57c0.15,2.23,1.96,3.96,4.14,4.05l0.15,2.22l-3.35,0.22l0.06,0.93
								l7.72-0.51l-0.06-0.93l-3.44,0.23l-0.15-2.22C539.41,760.29,540.98,758.34,540.84,756.11z"/>
							<path class="st2" d="M536.64,758.4c1.14-0.07,2-1.06,1.92-2.2l-0.35-5.29c-0.07-1.14-1.06-2-2.2-1.92
								c-1.14,0.07-2,1.06-1.92,2.19l0.35,5.29C534.52,757.61,535.5,758.47,536.64,758.4z"/>
						</g>
					</g>
				</g>
			</g>
			<g>
				<path class="st2" d="M523.81,761.57c-0.05-0.69,0.48-1.29,1.17-1.34c0.69-0.05,1.29,0.48,1.34,1.17l0.18,2.67l-2.51,0.16
					L523.81,761.57z"/>
				<path class="st2" d="M509.5,760.25c-0.05-0.69,0.48-1.29,1.17-1.34c0.69-0.05,1.29,0.48,1.34,1.17l0.32,4.92l-2.51,0.16
					L509.5,760.25z"/>
				<path class="st2" d="M514.01,756.76c-0.05-0.69,0.48-1.29,1.17-1.34c0.69-0.05,1.29,0.48,1.34,1.17l0.53,8.1l-2.51,0.16
					L514.01,756.76z"/>
				<path class="st2" d="M518.86,758.48c-0.05-0.69,0.48-1.29,1.17-1.34c0.69-0.05,1.29,0.48,1.34,1.17l0.4,6.07l-2.51,0.16
					L518.86,758.48z"/>
				<path class="st2" d="M471.33,754.19c-0.05-0.69,0.48-1.29,1.17-1.34l0,0c0.69-0.05,1.29,0.48,1.34,1.17l0.88,13.44l-2.51,0.16
					L471.33,754.19z"/>
				<path class="st2" d="M446.24,767.62c-0.05-0.69,0.48-1.29,1.17-1.34c0.69-0.05,1.29,0.48,1.34,1.17l0.11,1.72l-2.51,0.16
					L446.24,767.62z"/>
				<g>
					<path class="st2" d="M453.78,765.91c-0.05-0.69-0.64-1.22-1.34-1.17c-0.69,0.05-1.22,0.64-1.17,1.34l0.19,2.95l2.51-0.16
						L453.78,765.91z"/>
					<path class="st2" d="M459.87,768.17c-0.05-0.69-0.64-1.22-1.34-1.17c-0.69,0.05-1.22,0.64-1.17,1.34l0.02,0.3l2.51-0.16
						L459.87,768.17z"/>
					<path class="st2" d="M464.54,767.02c-0.05-0.69-0.64-1.22-1.34-1.17c-0.69,0.05-1.22,0.64-1.17,1.34l0.08,1.15l2.51-0.16
						L464.54,767.02z"/>
					<path class="st2" d="M469.21,766.02c-0.05-0.69-0.64-1.22-1.34-1.17c-0.69,0.05-1.22,0.64-1.17,1.34l0.12,1.84l2.51-0.16
						L469.21,766.02z"/>
				</g>
				<path class="st2" d="M421.99,767.29c-0.05-0.69,0.48-1.29,1.17-1.34c0.69-0.05,1.29,0.48,1.34,1.17l0.24,3.63l-2.51,0.16
					L421.99,767.29z"/>
				<path class="st2" d="M417.15,765.73c-0.05-0.69,0.48-1.29,1.17-1.34c0.69-0.05,1.29,0.48,1.34,1.17l0.36,5.5l-2.51,0.16
					L417.15,765.73z"/>
				<path class="st2" d="M412.24,763.17c-0.05-0.69,0.48-1.29,1.17-1.34c0.69-0.05,1.29,0.48,1.34,1.17l0.55,8.37l-2.51,0.16
					L412.24,763.17z"/>
				<path class="st2" d="M398.03,763.4c-0.05-0.69,0.48-1.29,1.17-1.34c0.69-0.05,1.29,0.48,1.34,1.17l0.6,9.07l-2.51,0.16
					L398.03,763.4z"/>
				<path class="st2" d="M402.6,760.81c-0.05-0.69,0.48-1.29,1.17-1.34l0,0c0.69-0.05,1.29,0.48,1.34,1.17l0.74,11.34l-2.51,0.16
					L402.6,760.81z"/>
				<path class="st2" d="M407.7,766.35c-0.05-0.69,0.48-1.29,1.17-1.34c0.69-0.05,1.29,0.48,1.34,1.17l0.36,5.5l-2.51,0.16
					L407.7,766.35z"/>
				<path class="st2" d="M440.9,766.78c-0.05-0.69,0.48-1.29,1.17-1.34c0.69-0.05,1.29,0.48,1.34,1.17l0.19,2.9l-2.51,0.16
					L440.9,766.78z"/>
				<path class="st2" d="M426.9,770.31c-0.05-0.69,0.48-1.29,1.17-1.34c0.69-0.05,1.29,0.48,1.34,1.17l0.02,0.3l-2.51,0.16
					L426.9,770.31z"/>
				<path class="st2" d="M431.57,769.15c-0.05-0.69,0.48-1.29,1.17-1.34c0.69-0.05,1.29,0.48,1.34,1.17l0.08,1.15l-2.51,0.16
					L431.57,769.15z"/>
				<path class="st2" d="M436.25,768.15c-0.05-0.69,0.48-1.29,1.17-1.34c0.69-0.05,1.29,0.48,1.34,1.17l0.12,1.84l-2.51,0.16
					L436.25,768.15z"/>
				<path class="st2" d="M504.4,755.09c-0.05-0.69,0.48-1.29,1.17-1.34c0.69-0.05,1.29,0.48,1.34,1.17l0.68,10.39l-2.51,0.16
					L504.4,755.09z"/>
				<path class="st2" d="M500.01,760.44c-0.05-0.69,0.48-1.29,1.17-1.34c0.69-0.05,1.29,0.48,1.34,1.17l0.35,5.34l-2.51,0.16
					L500.01,760.44z"/>
				<path class="st2" d="M494.8,753.46c-0.05-0.69,0.48-1.29,1.17-1.34c0.69-0.05,1.29,0.48,1.34,1.17l0.83,12.64l-2.51,0.16
					L494.8,753.46z"/>
				<path class="st2" d="M490.65,762.42c-0.05-0.69,0.48-1.29,1.17-1.34c0.69-0.05,1.29,0.48,1.34,1.17l0.26,3.99l-2.51,0.16
					L490.65,762.42z"/>
				<path class="st2" d="M476.57,764.66c-0.05-0.69,0.48-1.29,1.17-1.34c0.69-0.05,1.29,0.48,1.34,1.17l0.18,2.68l-2.51,0.16
					L476.57,764.66z"/>
				<path class="st2" d="M481.32,764.77c-0.05-0.69,0.48-1.29,1.17-1.34l0,0c0.69-0.05,1.29,0.48,1.34,1.17l0.15,2.26l-2.51,0.16
					L481.32,764.77z"/>
				<path class="st2" d="M485.66,758.71c-0.05-0.69,0.48-1.29,1.17-1.34c0.69-0.05,1.29,0.48,1.34,1.17l0.53,8.01l-2.51,0.16
					L485.66,758.71z"/>
			</g>
		</g>
		<g>
			<polygon class="st6" points="496.35,665.71 496.37,666.3 498.14,730.39 419.6,735.55 412.87,671.55 412.83,671.2 			"/>
			<g>
				<path class="st2" d="M422.85,489.49c0.14,2.09-0.05,4.14-0.52,6.07c-2.01,8.33-9.24,14.75-18.22,15.34
					c-11.09,0.73-20.66-7.68-21.39-18.78c-0.42-6.45,2.24-12.39,6.72-16.37c3.23-2.88,7.4-4.73,12.03-5.04
					C412.55,469.99,422.13,478.4,422.85,489.49z"/>
				<path class="st2" d="M573.37,635.19c-8.89,10.77-31.36,17.17-44.68,6.33l-81.59-71.79c-13.32-10.85-16.91-28.37-8.03-39.14
					c4.04-4.89,9.95-7.55,16.46-7.98c6.45-0.42,13.46,1.34,19.81,5.31c1.36,0.83,2.68,1.78,3.96,2.82l23.76,19.24l62.3,46.07
					C578.68,606.9,582.27,624.42,573.37,635.19z"/>
				<path class="st2" d="M420.46,570.37l-37.23,42.21l-15.26,17.3l-13.11,14.87c-9.19,10.51-27.28,10.05-40.39-1.06
					c-13.11-11.1-16.29-28.62-7.1-39.13l42.34-48.01l17.94-20.35l5.32-6.02c2.11-2.42,4.7-4.26,7.59-5.52
					c0.02-0.01,0.05-0.03,0.07-0.03c2.59-1.13,5.44-1.79,8.4-1.99c0.11-0.01,0.23-0.01,0.35-0.01c7.95-0.43,16.72,2.45,23.99,8.6
					C426.48,542.33,429.65,559.85,420.46,570.37z"/>
				<path class="st2" d="M491.03,556.56l1.8,37.99l0.61,12.73l3.79,58.44l-128.45,8.67l-0.8-44.49l-1.68-41.65l-1.54-38.44
					c-0.2-5.04,0.85-9.65,2.9-13.6c2.72-5.21,7.19-9.24,12.9-11.54c0.02-0.01,0.05-0.03,0.07-0.03c2.67-1.07,5.61-1.76,8.75-2
					c0.15-0.02,0.29-0.03,0.44-0.04l58.11-3.82c9.83-0.65,19.64,2.98,27.4,9.13C484.33,535.02,490.59,545.47,491.03,556.56z"/>
				<g>
					<path class="st5" d="M455.71,519.82c-2.57-0.41-5.17-0.53-7.77-0.36l-13.5,0.89l2.2-10.35l4.37,0.67
						c4.02,0.61,7.85-2.67,8.03-6.63c0.01-0.26,0-0.53-0.02-0.79l-1.19-17.49l-0.01-0.22c-0.54-6.58-5.51-12.18-12.32-13.21
						c-1.15-0.18-2.27-0.21-3.38-0.12c-6.57,0.53-12.15,5.53-13.18,12.33l0,0l-8.55,37.39l-15.91,1.04c0,0,15.42,28.03,40.41,28.49
						C459.85,551.93,455.71,519.82,455.71,519.82z"/>
					<path class="st2" d="M435.41,552.13C435.41,552.13,435.41,552.13,435.41,552.13l-0.56-0.01
						c-25.08-0.46-40.82-28.55-40.98-28.84l-0.5-0.91l16.46-1.08l8.43-36.91c1.06-6.97,6.73-12.27,13.78-12.84
						c1.18-0.09,2.38-0.05,3.54,0.13c7.01,1.06,12.31,6.74,12.88,13.81l1.21,17.72c0.02,0.28,0.02,0.57,0.02,0.85
						c-0.19,4.34-4.38,7.95-8.79,7.28l-3.75-0.57l-1.89,8.87l12.62-0.83c2.64-0.18,5.29-0.05,7.92,0.37l0.49,0.08l0.06,0.49
						c0.09,0.69,2.08,16.98-6.08,26.26C446.71,550.06,441.7,552.13,435.41,552.13z M395.58,523.56c2.92,4.8,17.54,26.84,39.3,27.24
						l0.53,0.01c0,0,0,0,0,0c5.89,0,10.55-1.91,13.87-5.69c7-7.95,6.08-21.91,5.81-24.72c-2.37-0.34-4.75-0.43-7.12-0.28
						l-14.38,0.95l2.51-11.82l4.99,0.76c3.66,0.55,7.1-2.43,7.26-6.01c0.01-0.23,0-0.48-0.02-0.72l-1.21-17.7
						c-0.52-6.44-5.36-11.62-11.76-12.6c-1.06-0.16-2.16-0.2-3.23-0.12c-6.43,0.52-11.6,5.36-12.57,11.77l-8.67,37.92L395.58,523.56
						z"/>
				</g>
				<path class="st2" d="M447.46,482.26c0,0-8.79,9.23-20.51,11.63c-5.01,1.02-9.11,1.86-10.74,1.81l2.71-11.83
					c1.21-7.95,8.62-13.43,16.56-12.22C441.35,472.54,445.97,476.86,447.46,482.26z"/>
				<path class="st5" d="M430.43,494.29c-0.4,2.61-2.83,4.4-5.43,4c-2.6-0.4-4.4-2.83-4-5.44c0.4-2.61,2.83-4.4,5.43-4
					C429.04,489.25,430.83,491.68,430.43,494.29z"/>
				<g>
					<path class="st5" d="M452.63,571.1c0-2.95-6-8.42-21.65-3.24l-6.99,2.2c-1.96,0.63-15.15,4.79-15.15,4.79l-2.52,0.8l-2.18,0.69
						l-4.5,1.42l0,0l-83.93,20.99c-0.04,0.01-0.1,0.03-0.14,0.04c-11.98,3.88-17.5,15.75-14.04,28.25c0.58,2.07,1.4,4.18,2.49,6.25
						c7.63,14.63,22.8,23.64,39.31,18.42c15.14-4.78,49.6-24.68,65.72-34.23c5.3-3.14,8.61-5.16,8.61-5.16l0.5-0.16l19.49-6.16
						c1.33-0.42,2.93,0.78,2.93,2.18c0,0.55,0.08,1.1,0.23,1.64c0.66,2.39,2.67,4.57,5.24,5.28c3.63,1.01,6.67-1.07,6.65-4.39
						L452.63,571.1z"/>
					<path class="st2" d="M333.88,654.52c-12.69,0-24.28-7.71-31.01-20.61c-1.11-2.11-1.98-4.3-2.59-6.51
						c-3.75-13.52,2.38-25.79,14.89-29.84l84.15-21.05l9.13-2.89c0,0,13.18-4.16,15.14-4.79l7-2.21c4.41-1.46,8.43-2.2,11.92-2.2
						c8.32,0,11.43,4.1,11.43,6.69l0.1,39.63c0.01,1.61-0.59,3.1-1.66,4.19c-1.13,1.14-2.73,1.77-4.48,1.77l0,0
						c-0.71,0-1.44-0.1-2.17-0.31c-2.92-0.81-5.33-3.24-6.15-6.19c-0.18-0.66-0.28-1.33-0.28-1.98c0-0.45-0.57-0.97-1.07-0.97
						l-20,6.3c-0.99,0.6-4.04,2.45-8.5,5.08c-14.66,8.69-50.45,29.44-65.99,34.35C340.46,653.99,337.15,654.52,333.88,654.52z
						 M442.5,567.02c-3.21,0-6.95,0.7-11.12,2.08l-7.01,2.21c-1.96,0.63-15.14,4.79-15.14,4.79l-9.2,2.91l-84,21.01
						c-11.17,3.61-16.59,14.57-13.24,26.67c0.56,2.03,1.37,4.05,2.39,6c6.27,12.03,17,19.21,28.7,19.21c3,0,6.05-0.48,9.06-1.43
						c15.28-4.83,50.86-25.47,65.45-34.12c4.65-2.75,7.76-4.64,8.46-5.06l0.43-0.21l0-0.01l19.99-6.32c2.14-0.69,4.63,1.2,4.63,3.42
						c0,0.42,0.06,0.85,0.19,1.29c0.57,2.05,2.31,3.81,4.33,4.38c0.5,0.14,0.99,0.21,1.47,0.21l0,0c1.06,0,1.99-0.36,2.63-1
						c0.59-0.59,0.91-1.4,0.9-2.33l-0.1-39.63C451.32,570.01,449.23,567.02,442.5,567.02z"/>
				</g>
				<g>
					<g>
						<polygon class="st2" points="442.9,499.07 445.32,498.91 445.02,494.33 444.16,494.38 444.4,498.1 442.84,498.21 						"/>
					</g>
					<g>
						<path class="st2" d="M441.03,503.84l-0.06-0.86c-2.3,0.15-4.07-1.95-4.09-1.97l-0.66,0.55
							C436.31,501.66,438.3,504.02,441.03,503.84z"/>
					</g>
				</g>
				<g>
					<path class="st5" d="M635.17,531.92l-37.26-13.44c-3.12-1.13-6.11,1.03-6.38,4.79c-0.2,2.66,1.17,5.29,3.2,6.72
						c0.46,0.32,0.94,0.58,1.46,0.77c1.32,0.48,1.91,2.39,1.06,3.5l-12.39,16.27l-0.32,0.42c0,0-3.02,2.44-7.77,6.37
						c-14.44,11.95-35.4,23.25-45.02,35.88c-10.5,13.79-7.16,31.1,4.03,43.22c1.59,1.72,3.29,3.21,5.04,4.45
						c10.59,7.47,23.63,6.28,31.33-3.69c0.03-0.04,0.06-0.08,0.09-0.12l38.71-57.49l0,0l2.86-3.76l1.39-1.82l1.6-2.11
						c0,0,8.38-11.01,9.64-12.64l4.44-5.84C641.07,540.41,637.94,532.92,635.17,531.92z"/>
					<path class="st2" d="M555.23,646.99C555.22,646.99,555.22,646.99,555.23,646.99c-5.22,0-10.46-1.75-15.15-5.06
						c-1.87-1.32-3.64-2.88-5.25-4.64c-12.55-13.58-14.21-31.63-4.11-44.89c6.29-8.25,17.34-15.97,28.03-23.43
						c5.92-4.13,12.04-8.4,17.2-12.67c4.44-3.68,7.38-6.05,7.74-6.35l0.14-0.23l12.39-16.26c0.14-0.18,0.16-0.49,0.07-0.8
						c-0.1-0.33-0.31-0.6-0.54-0.68c-0.61-0.22-1.21-0.53-1.77-0.93c-2.5-1.76-3.97-4.85-3.75-7.88c0.27-3.65,2.8-6.3,6.03-6.3
						c0.7,0,1.41,0.13,2.1,0.38l37.26,13.44c1.43,0.51,2.62,2,3.19,3.98c0.85,2.93,1.07,9.37-6.88,19.53l-4.43,5.82
						c-1.27,1.64-9.64,12.64-9.64,12.64l-5.86,7.68l-38.66,57.43C568.7,643.79,562.32,646.99,555.23,646.99z M596.25,519.48
						c-1.85,0-3.25,1.59-3.42,3.88c-0.15,2.1,0.91,4.33,2.65,5.55c0.38,0.27,0.75,0.47,1.15,0.61c1.02,0.37,1.83,1.27,2.16,2.4
						c0.33,1.11,0.14,2.28-0.5,3.12l-12.97,16.94c-0.36,0.29-3.29,2.66-7.72,6.33c-5.24,4.33-11.4,8.64-17.37,12.8
						c-10.53,7.35-21.41,14.94-27.45,22.87c-10.74,14.11-5.76,31.03,3.95,41.54c1.49,1.62,3.12,3.06,4.84,4.27
						c4.25,3,8.97,4.58,13.64,4.58h0c6.27,0,11.91-2.84,15.9-8.01l38.75-57.54l5.9-7.74c0,0,8.38-11.01,9.64-12.65l4.43-5.83
						c7.52-9.61,7.01-15.24,6.44-17.21c-0.4-1.38-1.09-2.07-1.57-2.25l-37.26-13.44C597.05,519.56,596.65,519.48,596.25,519.48z"/>
				</g>
			</g>
			<path class="st7" d="M475.22,731.9l-98.82,6.49c-2.68-18.63-5.06-40.02-6.63-64.01l93.2-6.12L475.22,731.9z"/>
			<g>
				<path class="st5" d="M523.21,728.75l-161.13,10.58l-2.79-42.44c5.65-14.43,10.48-22.51,10.48-22.51l126.46-8.3
					c0.05,0.08,0.09,0.15,0.14,0.23C507.28,684.52,516.1,706.28,523.21,728.75z"/>
				<path class="st2" d="M360.86,740.72l-2.89-44.03l0.11-0.27c5.62-14.36,10.38-22.37,10.58-22.71l0.35-0.59l0.68-0.05l127.27-8.36
					l0.41,0.7c10.15,16.95,19.23,38.05,27.09,62.93l0.5,1.59L360.86,740.72z M360.61,697.09l2.68,40.84l158.17-10.39
					c-7.62-23.78-16.34-44-25.94-60.12l-124.97,8.2C369.37,677.72,365.26,685.26,360.61,697.09z"/>
			</g>
			<g>
				<path class="st2" d="M473.19,732.03l-1.62,0.11c-1.17-2.51-2.19-5.13-3.05-7.88c-0.29-0.92,1.13-1.42,1.43-0.49
					C470.85,726.66,471.94,729.4,473.19,732.03z"/>
				<path class="st2" d="M402.97,736.64l-1.56,0.1c-1.2-2.81-2.49-5.58-3.78-8.3c-0.42-0.88,1.01-1.35,1.41-0.48
					C400.41,730.83,401.74,733.71,402.97,736.64z"/>
			</g>
		</g>
	</g>
	<g>
		<g>
			<g>
				<path class="st2" d="M941.01,656.17l-157.85-13.1c-17.22-1.43-30.07-16.6-28.64-33.82l32.04-385.9
					c1.43-17.22,16.6-30.07,33.82-28.64l157.85,13.1c17.22,1.43,30.07,16.6,28.64,33.82l-32.04,385.9
					C973.4,644.75,958.23,657.6,941.01,656.17z M819.38,206.72c-10.59-0.88-19.93,7.02-20.81,17.62l-32.04,385.9
					c-0.88,10.59,7.02,19.93,17.62,20.81L942,644.15c10.59,0.88,19.93-7.02,20.81-17.62l32.04-385.9
					c0.88-10.59-7.02-19.93-17.62-20.81L819.38,206.72z"/>
				<g>
					<path class="st5" d="M941.51,650.16l-157.85-13.1c-13.93-1.16-24.28-13.39-23.13-27.32l32.04-385.9
						c1.16-13.93,13.39-24.28,27.32-23.13l157.85,13.1c13.93,1.16,24.28,13.39,23.13,27.32l-32.04,385.9
						C967.67,640.96,955.44,651.31,941.51,650.16z"/>
					<path class="st2" d="M943.62,651.55c-0.74,0-1.48-0.03-2.23-0.09l-157.85-13.1c-7.08-0.59-13.52-3.9-18.11-9.32
						c-4.59-5.43-6.8-12.32-6.21-19.4l32.04-385.9c1.2-14.42,14.04-25.54,28.73-24.32l157.85,13.1c7.08,0.59,13.52,3.9,18.11,9.33
						c4.59,5.43,6.8,12.32,6.21,19.4l-32.04,385.9C968.98,640.83,957.35,651.55,943.62,651.55z M817.76,201.92
						c-12.37,0-22.87,9.67-23.9,22.02l-32.04,385.9c-0.53,6.39,1.46,12.6,5.6,17.5c4.14,4.89,9.94,7.88,16.33,8.41l157.85,13.1
						c13.25,1.13,24.83-8.92,25.91-21.94l32.04-385.9c0.53-6.39-1.46-12.6-5.6-17.5s-9.94-7.88-16.33-8.41l-157.85-13.1
						C819.1,201.95,818.43,201.92,817.76,201.92z"/>
				</g>
				<g>
					<polygon class="st2" points="813.56,266.68 806.6,257.4 814.99,249.39 816.4,250.87 809.32,257.62 815.19,265.45 					"/>
				</g>
				<g>
					<g>
						
							<rect x="730.21" y="327.97" transform="matrix(0.0827 -0.9966 0.9966 0.0827 377.7575 1272.672)" class="st5" width="300.04" height="206.32"/>
						<path class="st2" d="M971.82,590.58l-1.3-0.11l-206.91-17.18l25.04-301.61l208.21,17.28L971.82,590.58z M766.42,570.91
							l203.01,16.85l24.61-296.41L791.03,274.5L766.42,570.91z"/>
					</g>
				</g>
			</g>
			<g>
				<path class="st2" d="M941.39,651.49l-157.85-13.1c-14.64-1.22-25.57-14.12-24.35-28.76l32.04-385.9
					c1.22-14.64,14.12-25.57,28.76-24.35l157.85,13.1c14.64,1.22,25.57,14.12,24.35,28.76l-32.04,385.9
					C968.94,641.78,956.04,652.71,941.39,651.49z M819.77,202.04c-13.17-1.09-24.78,8.73-25.87,21.9l-32.04,385.9
					c-1.09,13.17,8.73,24.78,21.9,25.87l157.85,13.1c13.17,1.09,24.78-8.73,25.87-21.9l32.04-385.9
					c1.09-13.17-8.73-24.78-21.9-25.87L819.77,202.04z"/>
			</g>
			<path class="st2" d="M951.37,234.01c-0.24,2.87-2.76,5.01-5.63,4.77c-2.87-0.24-5.01-2.76-4.77-5.63s2.76-5.01,5.63-4.77
				C949.47,228.62,951.61,231.14,951.37,234.01z"/>
			<path class="st2" d="M966.97,235.31c-0.24,2.87-2.76,5.01-5.63,4.77s-5.01-2.76-4.77-5.63s2.76-5.01,5.63-4.77
				C965.07,229.92,967.21,232.44,966.97,235.31z"/>
			<path class="st2" d="M982.57,236.6c-0.24,2.87-2.76,5.01-5.63,4.77s-5.01-2.76-4.77-5.63c0.24-2.87,2.76-5.01,5.63-4.77
				C980.67,231.21,982.81,233.73,982.57,236.6z"/>
			<path class="st2" d="M979.99,271.79c-0.37,4.4-4.23,7.67-8.63,7.31c-4.4-0.37-7.67-4.23-7.31-8.63c0.37-4.4,4.23-7.67,8.63-7.31
				C977.08,263.53,980.35,267.39,979.99,271.79z"/>
			<path class="st2" d="M939,270.46l17.62,1.46c1.14,0.09,2.14-0.75,2.23-1.89l0,0c0.09-1.14-0.75-2.14-1.89-2.23l-17.62-1.46
				c-1.14-0.09-2.14,0.75-2.23,1.89l0,0C937.01,269.37,937.86,270.37,939,270.46z"/>
			<g>
				<path class="st5" d="M939.25,624.98L790.03,612.6c-5.61-0.47-9.79-5.4-9.32-11.01l0,0c0.47-5.61,5.4-9.79,11.01-9.32
					l149.22,12.39c5.61,0.47,9.79,5.4,9.32,11.01l0,0C949.8,621.28,944.87,625.45,939.25,624.98z"/>
				<path class="st2" d="M940.11,625.69c-0.3,0-0.61-0.01-0.91-0.04l-149.22-12.39c-5.97-0.5-10.43-5.76-9.93-11.73
					c0.49-5.89,5.73-10.45,11.73-9.93l149.22,12.39c5.97,0.5,10.43,5.76,9.93,11.73C950.46,621.31,945.71,625.69,940.11,625.69z
					 M790.86,592.89c-4.92,0-9.08,3.84-9.49,8.75c-0.43,5.24,3.48,9.86,8.72,10.3l149.22,12.39c5.27,0.45,9.86-3.54,10.29-8.71
					c0.43-5.24-3.48-9.86-8.72-10.3l-149.22-12.39C791.39,592.9,791.13,592.89,790.86,592.89z"/>
			</g>
			<g>
				<g>
					<g>
						<g>
							<path class="st2" d="M939.33,615.13l0.13-1.57l-0.93-0.08l-0.13,1.57c-0.16,1.87-1.8,3.27-3.67,3.11
								c-1.87-0.16-3.27-1.8-3.11-3.67l0.13-1.57l-0.93-0.08l-0.13,1.57c-0.18,2.23,1.35,4.2,3.5,4.62l-0.18,2.21l-3.35-0.28
								l-0.08,0.93l7.71,0.64l0.08-0.93l-3.44-0.29l0.18-2.21C937.31,619.05,939.15,617.35,939.33,615.13z"/>
							<path class="st2" d="M934.85,616.77c1.14,0.09,2.13-0.75,2.23-1.89l0.44-5.28c0.09-1.14-0.75-2.13-1.89-2.23
								c-1.14-0.09-2.13,0.75-2.23,1.89l-0.44,5.28C932.87,615.68,933.71,616.67,934.85,616.77z"/>
						</g>
					</g>
				</g>
			</g>
			<g>
				<path class="st2" d="M811.25,608.54c0.06-0.7-0.46-1.31-1.16-1.37c-0.7-0.06-1.31,0.46-1.37,1.16l-0.19,2.28l2.52,0.21
					L811.25,608.54z"/>
				<path class="st2" d="M816.26,605.74c0.06-0.7-0.46-1.31-1.16-1.37l0,0c-0.7-0.06-1.31,0.46-1.37,1.16l-0.45,5.47l2.52,0.21
					L816.26,605.74z"/>
				<path class="st2" d="M820.9,607.49c0.06-0.7-0.46-1.31-1.16-1.37c-0.7-0.06-1.31,0.46-1.37,1.16l-0.34,4.11l2.52,0.21
					L820.9,607.49z"/>
				<path class="st2" d="M825.95,604.17c0.06-0.7-0.46-1.31-1.16-1.37c-0.7-0.06-1.31,0.46-1.37,1.16l-0.65,7.83l2.52,0.21
					L825.95,604.17z"/>
				<path class="st2" d="M839.98,607.92c0.06-0.7-0.46-1.31-1.16-1.37c-0.7-0.06-1.31,0.46-1.37,1.16l-0.44,5.26l2.52,0.21
					L839.98,607.92z"/>
				<path class="st2" d="M835.5,604.34c0.06-0.7-0.46-1.31-1.16-1.37c-0.7-0.06-1.31,0.46-1.37,1.16l-0.7,8.45l2.52,0.21
					L835.5,604.34z"/>
				<path class="st2" d="M830.39,608.28c0.06-0.7-0.46-1.31-1.16-1.37c-0.7-0.06-1.31,0.46-1.37,1.16l-0.34,4.11l2.52,0.21
					L830.39,608.28z"/>
				<path class="st2" d="M858.06,611.73c0.06-0.7-0.46-1.31-1.16-1.37l0,0c-0.7-0.06-1.31,0.46-1.37,1.16l-0.25,2.97l2.52,0.21
					L858.06,611.73z"/>
				<path class="st2" d="M862.99,609.83c0.06-0.7-0.46-1.31-1.16-1.37c-0.7-0.06-1.31,0.46-1.37,1.16l-0.44,5.26l2.52,0.21
					L862.99,609.83z"/>
				<path class="st2" d="M868.85,605.53c0.06-0.7-0.46-1.31-1.16-1.37c-0.7-0.06-1.31,0.46-1.37,1.16l-0.83,10.02l2.52,0.21
					L868.85,605.53z"/>
				<path class="st2" d="M882.51,613.76c0.06-0.7-0.46-1.31-1.16-1.37c-0.7-0.06-1.31,0.46-1.37,1.16l-0.25,2.97l2.52,0.21
					L882.51,613.76z"/>
				<path class="st2" d="M877.95,611.08c0.06-0.7-0.46-1.31-1.16-1.37c-0.7-0.06-1.31,0.46-1.37,1.16l-0.44,5.26l2.52,0.21
					L877.95,611.08z"/>
				<path class="st2" d="M873.36,608.8c0.06-0.7-0.46-1.31-1.16-1.37c-0.7-0.06-1.31,0.46-1.37,1.16l-0.59,7.14l2.52,0.21
					L873.36,608.8z"/>
				<path class="st2" d="M806.22,607.91c0.06-0.7-0.46-1.31-1.16-1.37c-0.7-0.06-1.31,0.46-1.37,1.16l-0.21,2.49l2.52,0.21
					L806.22,607.91z"/>
				<path class="st2" d="M801.61,605.82c0.06-0.7-0.46-1.31-1.16-1.37c-0.7-0.06-1.31,0.46-1.37,1.16l-0.35,4.19l2.52,0.21
					L801.61,605.82z"/>
				<path class="st2" d="M888.24,616.92c0.06-0.7-0.46-1.31-1.16-1.37c-0.7-0.06-1.31,0.46-1.37,1.16l-0.03,0.3l2.52,0.21
					L888.24,616.92z"/>
				<path class="st2" d="M893.05,616.46c0.06-0.7-0.46-1.31-1.16-1.37c-0.7-0.06-1.31,0.46-1.37,1.16l-0.1,1.15l2.52,0.21
					L893.05,616.46z"/>
				<path class="st2" d="M897.86,616.16c0.06-0.7-0.46-1.31-1.16-1.37c-0.7-0.06-1.31,0.46-1.37,1.16l-0.15,1.85l2.52,0.21
					L897.86,616.16z"/>
				<path class="st2" d="M902.7,615.49c0.06-0.7-0.46-1.31-1.16-1.37c-0.7-0.06-1.31,0.46-1.37,1.16l-0.24,2.92l2.52,0.21
					L902.7,615.49z"/>
				<path class="st2" d="M916.73,619.28c0.06-0.7-0.46-1.31-1.16-1.37c-0.7-0.06-1.31,0.46-1.37,1.16l-0.03,0.3l2.52,0.21
					L916.73,619.28z"/>
				<path class="st2" d="M912.05,618.04c0.06-0.7-0.46-1.31-1.16-1.37c-0.7-0.06-1.31,0.46-1.37,1.16l-0.1,1.15l2.52,0.21
					L912.05,618.04z"/>
				<path class="st2" d="M907.36,616.95c0.06-0.7-0.46-1.31-1.16-1.37c-0.7-0.06-1.31,0.46-1.37,1.16l-0.15,1.85l2.52,0.21
					L907.36,616.95z"/>
				<path class="st2" d="M844.72,608.65c0.06-0.7-0.46-1.31-1.16-1.37c-0.7-0.06-1.31,0.46-1.37,1.16l-0.41,4.92l2.52,0.21
					L844.72,608.65z"/>
				<path class="st2" d="M849.9,603.88c0.06-0.7-0.46-1.31-1.16-1.37c-0.7-0.06-1.31,0.46-1.37,1.16l-0.84,10.09l2.52,0.21
					L849.9,603.88z"/>
				<path class="st2" d="M853.66,609.4c0.06-0.7-0.46-1.31-1.16-1.37c-0.7-0.06-1.31,0.46-1.37,1.16l-0.41,4.92l2.52,0.21
					L853.66,609.4z"/>
			</g>
		</g>
		<g>
			<g>
				<g>
					<g>
						<polygon class="st5" points="973.08,542.95 949.91,541.02 949.91,541.02 949.91,541.02 825.58,530.7 791.88,574.33 
							910.85,584.21 910.85,584.21 967.44,588.9 						"/>
						<path class="st2" d="M968.59,590.31l-179.21-14.88l35.6-46.1l0.71,0.06l128.06,10.63l-0.01,0.01l20.8,1.73L968.59,590.31z
							 M794.38,573.23L966.3,587.5l5.32-43.36l-25.55-2.12l0.01-0.01l-119.89-9.95L794.38,573.23z"/>
					</g>
					<g>
						<polygon class="st2" points="881.73,580.95 879.04,559.2 862.57,553.48 863.43,551.02 881.43,557.26 884.32,580.63 						"/>
					</g>
					<g>
						<path class="st2" d="M1069.13,452.69l-35.01-30.18l-47.59-41.01l-11.58-9.99c-4.91-4.27-10.77-6.75-16.79-7.5
							c-4.68-2.09-9.79-3.45-15.2-3.9l-56.03-4.65c-9.68-0.8-18.92,1.41-26.79,5.86c-3.73,2.11-7.14,4.74-10.16,7.77
							c-2.41,1.36-4.69,3.04-6.75,5.08l-55.71,54.75l-32.96,32.41c-12.45,12.32-12.56,32.4-0.24,44.84
							c12.32,12.45,32.4,12.56,44.85,0.24l30.95-30.42l-4.54,54.7l149,12.37l6.83-82.25l0,0l8.51,7.34l37.65,32.45
							c13.22,11.47,33.25,10.05,44.73-3.17C1083.77,484.2,1082.37,464.18,1069.13,452.69z"/>
						<path class="st2" d="M975.78,544.47l-151.6-12.59l4.36-52.5l-28.45,27.96c-6.22,6.15-14.47,9.54-23.22,9.54
							c-8.89,0-17.23-3.48-23.47-9.8c-6.2-6.27-9.59-14.57-9.54-23.39c0.05-8.82,3.53-17.09,9.8-23.29l88.68-87.16
							c2.02-2,4.33-3.75,6.87-5.2c3.11-3.11,6.58-5.75,10.31-7.86c8.32-4.7,17.85-6.82,27.54-6.02l56.03,4.65
							c5.38,0.45,10.57,1.77,15.45,3.93c6.42,0.84,12.39,3.53,17.28,7.78l94.18,81.18c13.75,11.94,15.23,32.83,3.31,46.58
							c-6.28,7.23-15.38,11.37-24.96,11.37c0,0,0,0,0,0c-7.94,0-15.61-2.87-21.62-8.07l-44.21-38.11L975.78,544.47z M826.99,529.5
							l146.4,12.15l6.93-83.51l48.09,41.46c5.53,4.8,12.6,7.44,19.91,7.44c0,0,0,0,0,0c8.82,0,17.2-3.82,22.99-10.48
							c10.99-12.66,9.62-31.9-3.04-42.89L974.1,372.5c-4.56-3.96-10.12-6.44-16.09-7.19l-0.37-0.1c-4.65-2.09-9.62-3.36-14.77-3.79
							l-56.03-4.65c-9.16-0.77-18.17,1.24-26.04,5.69c-3.58,2.02-6.9,4.56-9.87,7.56l-0.28,0.22c-2.4,1.35-4.57,2.99-6.48,4.87
							l-88.68,87.16c-5.77,5.71-8.98,13.33-9.02,21.45c-0.04,8.12,3.08,15.77,8.79,21.54c5.75,5.82,13.43,9.03,21.62,9.03
							c8.06,0,15.65-3.12,21.39-8.79l33.46-32.89L826.99,529.5z"/>
					</g>
					<g>
						<path class="st5" d="M925.67,358.7l-8.82-41.85l0,0c0,0,0,0,0,0c-1.18-8.84-9.32-15.05-18.16-13.86
							c-4.92,0.65-9.01,3.46-11.47,7.32c-1.34,2.1-2.2,4.52-2.46,7.09l-0.02,0.25l-1.67,19.37c-0.09,0.91,0,1.8,0.23,2.62
							c1,3.59,4.67,6.29,8.53,5.77l4.86-0.65l5.61,28.8L925.67,358.7z"/>
						<path class="st2" d="M901.83,374.63l-5.67-29.14l-4.24,0.57c-4.15,0.54-8.14-2.25-9.26-6.25c-0.26-0.95-0.35-1.91-0.25-2.87
							l1.69-19.61c0.26-2.62,1.15-5.17,2.56-7.39c2.67-4.19,7.02-6.97,11.95-7.63c0.75-0.1,1.52-0.15,2.27-0.15
							c8.35,0,15.49,6.24,16.63,14.52l0,0.02l8.92,42.3L901.83,374.63z M897.22,344.01l5.54,28.46l22.16-14.08l-8.62-40.87h-0.13
							l0-0.66c-1.02-7.57-7.6-13.34-15.31-13.34c-0.69,0-1.4,0.05-2.09,0.14c-4.54,0.6-8.55,3.16-11,7.02
							c-1.3,2.04-2.12,4.39-2.36,6.8l-0.02,0.24l-1.67,19.37c-0.08,0.8-0.01,1.6,0.21,2.39c0.93,3.33,4.38,5.75,7.81,5.29
							L897.22,344.01z"/>
					</g>
					<path class="st2" d="M885.3,314.53l12.23,1.02c5.06,0.35,4.73,8.29,10.8,11.56c5,2.7,9.48,2.96,11.3,2.93l-2.78-13.18
						c-1.19-8.85-9.32-15.06-18.16-13.88C892.15,303.85,887.15,308.14,885.3,314.53z"/>
					<circle class="st5" cx="907.81" cy="325.48" r="5.3"/>
					<g>
						<path class="st5" d="M1071.23,452.04c-3.03-2.78-6.46-4.84-10.08-6.23l-27.03-23.3l-44.2,45.64l14.6,12.58l-3.01,3.67
							l-39.18,47.84l-0.05,0.04l-7.86,8.59c0,0-11.08,12.07-12.75,13.87l-2.58,2.82l-3.29,3.59c-13.44,14.28-10.11,21.86-6.77,22.71
							l44.87,11.38c3.77,0.96,7.58-1.52,8.19-5.44c0.04-0.24,0.06-0.49,0.07-0.73c0.09-2.24-1.04-4.31-2.82-5.61
							c-0.73-0.54-1.55-0.93-2.45-1.16c-1.6-0.41-2.18-2.36-1.07-3.57l14.42-15.7l0-0.01l2.39-2.61c0,0,0.02-0.01,0.05-0.03
							c1.94-1.37,63.82-45.42,80.47-63.55C1087.04,481.71,1084.13,463.89,1071.23,452.04z"/>
						<path class="st2" d="M975.55,596.76L975.55,596.76c-0.66,0-1.32-0.08-1.96-0.25l-44.87-11.38c-1.68-0.43-3.04-1.89-3.62-3.9
							c-0.88-3.02-0.78-9.76,9.76-20.97l5.85-6.39c1.68-1.81,12.75-13.87,12.75-13.87l7.86-8.59l41.38-50.52l-14.68-12.66
							l46.02-47.52l27.79,23.96c3.82,1.5,7.28,3.65,10.28,6.41c14.55,13.35,15.35,32.1,2,46.65
							c-16.86,18.36-79.71,63.05-80.67,63.73l-16.65,18.17c-0.3,0.32-0.23,0.69-0.19,0.83c0.04,0.14,0.19,0.48,0.62,0.59
							c1.07,0.27,2.04,0.73,2.9,1.37c2.2,1.59,3.45,4.11,3.35,6.71c-0.01,0.29-0.04,0.6-0.09,0.89
							C982.79,593.92,979.49,596.76,975.55,596.76z M991.82,468.06l14.51,12.51l-42.99,52.5l-7.96,8.69c0,0-11.08,12.07-12.75,13.88
							l-5.86,6.4c-10.31,10.95-9.62,16.9-9.17,18.46c0.38,1.32,1.16,1.95,1.76,2.1l44.87,11.38c3.03,0.76,6.1-1.31,6.58-4.38
							c0.03-0.19,0.05-0.39,0.06-0.57c0.07-1.74-0.78-3.42-2.28-4.51c-0.6-0.45-1.27-0.76-2-0.95c-1.2-0.3-2.12-1.19-2.47-2.37
							c-0.35-1.18-0.07-2.43,0.77-3.34l17.16-18.6c2.87-2.04,63.75-45.43,80.16-63.3c12.49-13.61,11.76-30.47-1.84-42.96
							c-2.81-2.58-6.07-4.59-9.67-5.97l-0.39-0.23l-26.09-22.5L991.82,468.06z"/>
					</g>
				</g>
				<g>
					
						<rect x="970.84" y="429.36" transform="matrix(0.6528 -0.7575 0.7575 0.6528 -5.5279 893.5901)" class="st2" width="2.61" height="46.94"/>
				</g>
				<g>
					
						<rect x="1001.51" y="472.36" transform="matrix(0.6519 -0.7583 0.7583 0.6519 -7.1716 931.7052)" class="st2" width="19.52" height="2.61"/>
				</g>
				<path class="st2" d="M905.46,319.38l-1.8,21.71c0,0-1.17,3.64-7.56,5.1c-6.39,1.46-13.48-1.25-14.42-3.66
					c-0.94-2.4,1.86-11.23,1.86-11.23s5.85,0.22,8.13,1.27c2.28,1.04,3.03,3.59,3.03,3.59s4.05,0.06,5.11-4.7
					c1.06-4.76,1.52-14.83,1.52-14.83L905.46,319.38z"/>
				<g>
					<g>
						<polygon class="st2" points="887.23,331.2 884.83,331 885.15,327.2 886,327.27 885.76,330.21 887.3,330.34 						"/>
					</g>
					<g>
						<path class="st5" d="M886.07,337.37l0.07-0.85c2.27,0.19,4.07-1.87,4.09-1.89l0.65,0.56
							C890.79,335.28,888.77,337.59,886.07,337.37z"/>
					</g>
				</g>
			</g>
			<g>
				<path class="st5" d="M787.53,428.93l-19.83,19.49l-52.16-27.23l-8.9-5.84l-1.45-14.72c-0.3-3.01-1.94-5.72-4.47-7.38l-5.66-3.71
					c-2.23-1.47-5.28-0.72-6.56,1.7c-1.11,2.11-0.29,4.74,1.71,6.05l4.02,2.64c1.15,0.76,1.9,2,2.04,3.37
					c0.22,2.26-2.27,3.77-4.17,2.52l-6.71-4.4c-5.32-3.49-8.14-9.75-7.23-16.05c0.22-1.5-0.43-3-1.7-3.83
					c-2.36-1.55-5.54-0.13-5.95,2.67l-5.88,40.03c-0.76,5.15,1.54,10.26,5.89,13.12l26.14,17.15l0.07-0.1l-0.04,0.07l-0.02,0.03
					c0,0,1.28,1.26,3.52,3.41c9.64,9.3,36.88,35.21,53.96,48.07c0.06,0.06,0.11,0.13,0.17,0.19c12.32,12.45,32.4,12.56,44.85,0.24
					l35.44-34.83L787.53,428.93z"/>
				<path class="st2" d="M776.86,516.88C776.86,516.88,776.86,516.88,776.86,516.88c-8.89,0-17.23-3.48-23.47-9.8l-0.2-0.22
					c-17.35-13.04-45.66-40.06-53.92-48.02c-1.91-1.84-3.13-3.03-3.45-3.34l-26.02-17.07c-4.75-3.12-7.29-8.77-6.47-14.4l5.88-40.03
					c0.38-2.57,2.53-4.42,5.13-4.42c1,0,1.98,0.29,2.83,0.85c1.67,1.1,2.57,3.11,2.27,5.11c-0.83,5.77,1.78,11.58,6.66,14.78
					l6.71,4.4c0.58,0.38,1.36,0.26,1.81-0.24c0.18-0.2,0.39-0.55,0.34-1.06c-0.1-0.99-0.63-1.87-1.46-2.41l-4.02-2.63
					c-2.6-1.71-3.54-5.11-2.14-7.75c1.02-1.94,3.02-3.14,5.21-3.14c1.14,0,2.26,0.33,3.22,0.96l5.66,3.72
					c2.87,1.89,4.71,4.93,5.05,8.34l1.39,14.1l8.38,5.5l51.21,26.73l20.03-19.69l49.02,44.41l-36.43,35.8
					C793.86,513.5,785.61,516.88,776.86,516.88z M697.58,453.56c0,0,1.28,1.26,3.51,3.4c8.23,7.94,36.45,34.87,53.84,47.97
					l0.28,0.28c5.79,5.86,13.46,9.06,21.65,9.06c0,0,0,0,0,0c8.06,0,15.65-3.12,21.39-8.79l34.46-33.86l-45.15-40.9l-19.63,19.3
					l-53-27.67l-9.53-6.25l-1.51-15.35c-0.26-2.63-1.67-4.96-3.88-6.42l-5.66-3.72c-1.56-1.02-3.82-0.43-4.69,1.22
					c-0.77,1.46-0.21,3.37,1.27,4.35l4.01,2.63c1.49,0.98,2.45,2.56,2.63,4.34c0.11,1.14-0.24,2.23-1,3.07
					c-1.29,1.42-3.55,1.74-5.18,0.67l-6.71-4.4c-5.72-3.75-8.79-10.56-7.81-17.33c0.15-1.01-0.29-2.01-1.12-2.56
					c-1.37-0.89-3.64-0.31-3.94,1.77l-5.88,40.03c-0.68,4.63,1.41,9.27,5.32,11.84l26.14,17.15l-0.66,1.01l0.02,0.01L697.58,453.56z
					"/>
			</g>
		</g>
	</g>
	<path class="st2" d="M376.77,389.13H79.49c-23.64,0-42.8-19.16-42.8-42.8v-24.46c0-23.64,19.16-42.8,42.8-42.8h297.28
		c23.64,0,42.8,19.16,42.8,42.8v24.46C419.57,369.96,400.41,389.13,376.77,389.13z"/>
	<path class="st2" d="M79.49,252.62h184.59c23.64,0,42.8-19.16,42.8-42.8v-9.97c0-23.64-19.16-42.8-42.8-42.8H79.49
		c-23.64,0-42.8,19.16-42.8,42.8v9.97C36.69,233.45,55.85,252.62,79.49,252.62z"/>
	<g>
		<path class="st5" d="M127.3,210.63c0-1.36-1.1-2.46-2.46-2.46l0,0c-1.36,0-2.46,1.1-2.46,2.46v5.78h4.92V210.63z"/>
		<path class="st5" d="M136.54,206.17c0-1.36-1.1-2.46-2.46-2.46s-2.46,1.1-2.46,2.46v10.24h4.92V206.17z"/>
		<path class="st5" d="M145.79,202.52c0-1.36-1.1-2.46-2.46-2.46c-1.36,0-2.46,1.1-2.46,2.46v13.9h4.92V202.52z"/>
		<path class="st5" d="M155.04,196.9c0-1.36-1.1-2.46-2.46-2.46c-1.36,0-2.46,1.1-2.46,2.46v19.52h4.92V196.9z"/>
		<path class="st5" d="M182.78,210.63c0-1.36-1.1-2.46-2.46-2.46c-1.36,0-2.46,1.1-2.46,2.46v5.78h4.92V210.63z"/>
		<path class="st5" d="M173.54,206.17c0-1.36-1.1-2.46-2.46-2.46c-1.36,0-2.46,1.1-2.46,2.46v10.24h4.92V206.17z"/>
		<path class="st5" d="M164.29,202.52c0-1.36-1.1-2.46-2.46-2.46s-2.46,1.1-2.46,2.46v13.9h4.92V202.52z"/>
		<path class="st5" d="M259.04,209.3c0-1.36-1.1-2.46-2.46-2.46c-1.36,0-2.46,1.1-2.46,2.46v7.11h4.92V209.3z"/>
		<path class="st5" d="M268.29,205.65c0-1.36-1.1-2.46-2.46-2.46c-1.36,0-2.46,1.1-2.46,2.46v10.77h4.92V205.65z"/>
		<path class="st5" d="M277.54,200.03c0-1.36-1.1-2.46-2.46-2.46c-1.36,0-2.46,1.1-2.46,2.46v16.38h4.92V200.03z"/>
		<path class="st5" d="M286.79,205.65c0-1.36-1.1-2.46-2.46-2.46c-1.36,0-2.46,1.1-2.46,2.46v10.77h4.92V205.65z"/>
		<path class="st5" d="M194.36,215.82c0-1.36-1.1-2.46-2.46-2.46c-1.36,0-2.46,1.1-2.46,2.46v0.59h4.92V215.82z"/>
		<path class="st5" d="M203.61,214.17c0-1.36-1.1-2.46-2.46-2.46c-1.36,0-2.46,1.1-2.46,2.46v2.24h4.92V214.17z"/>
		<path class="st5" d="M212.86,212.82c0-1.36-1.1-2.46-2.46-2.46c-1.36,0-2.46,1.1-2.46,2.46v3.6h4.92V212.82z"/>
		<path class="st5" d="M222.11,210.73c0-1.36-1.1-2.46-2.46-2.46c-1.36,0-2.46,1.1-2.46,2.46v5.68h4.92V210.73z"/>
		<path class="st5" d="M249.85,215.82c0-1.36-1.1-2.46-2.46-2.46c-1.36,0-2.46,1.1-2.46,2.46v0.59h4.92V215.82z"/>
		<path class="st5" d="M240.6,214.17c0-1.36-1.1-2.46-2.46-2.46c-1.36,0-2.46,1.1-2.46,2.46v2.24h4.92V214.17z"/>
		<path class="st5" d="M231.36,212.82c0-1.36-1.1-2.46-2.46-2.46s-2.46,1.1-2.46,2.46v3.6h4.92V212.82z"/>
		<path class="st5" d="M62.94,199.08c0-1.36-1.1-2.46-2.46-2.46c-1.36,0-2.46,1.1-2.46,2.46v17.33h4.92V199.08z"/>
		<path class="st5" d="M72.19,189.02c0-1.36-1.1-2.46-2.46-2.46c-1.36,0-2.46,1.1-2.46,2.46v27.39h4.92V189.02z"/>
		<path class="st5" d="M81.44,198.91c0-1.36-1.1-2.46-2.46-2.46c-1.36,0-2.46,1.1-2.46,2.46v17.5h4.92V198.91z"/>
		<path class="st5" d="M90.68,210.41c0-1.36-1.1-2.46-2.46-2.46s-2.46,1.1-2.46,2.46v6h4.92V210.41z"/>
		<path class="st5" d="M118.43,199.08c0-1.36-1.1-2.46-2.46-2.46s-2.46,1.1-2.46,2.46v17.33h4.92V199.08z"/>
		<path class="st5" d="M109.18,189.02c0-1.36-1.1-2.46-2.46-2.46h0c-1.36,0-2.46,1.1-2.46,2.46v27.39h4.92V189.02z"/>
		<path class="st5" d="M99.93,198.91c0-1.36-1.1-2.46-2.46-2.46c-1.36,0-2.46,1.1-2.46,2.46v17.5h4.92V198.91z"/>
	</g>
	<g>
		<path class="st5" d="M374.52,340.08c0-1.71,1.39-3.1,3.1-3.1c1.71,0,3.1,1.39,3.1,3.1v6.59h-6.2V340.08z"/>
		<path class="st5" d="M339.54,334.51c0-1.71,1.39-3.1,3.1-3.1c1.71,0,3.1,1.39,3.1,3.1v12.15h-6.2V334.51z"/>
		<path class="st5" d="M351.2,326.67c0-1.71,1.39-3.1,3.1-3.1c1.71,0,3.1,1.39,3.1,3.1v19.99h-6.2V326.67z"/>
		<path class="st5" d="M362.86,331.67c0-1.71,1.39-3.1,3.1-3.1s3.1,1.39,3.1,3.1v14.99h-6.2V331.67z"/>
		<path class="st5" d="M246.69,313.46c0-1.71,1.39-3.1,3.1-3.1l0,0c1.71,0,3.1,1.39,3.1,3.1v33.2h-6.2V313.46z"/>
		<path class="st5" d="M182.82,342.42c0-1.71,1.39-3.1,3.1-3.1c1.71,0,3.1,1.39,3.1,3.1v4.24h-6.2V342.42z"/>
		<g>
			<path class="st5" d="M201.64,339.44c0-1.71-1.39-3.1-3.1-3.1c-1.71,0-3.1,1.39-3.1,3.1v7.29h6.2V339.44z"/>
			<path class="st5" d="M216.24,345.98c0-1.71-1.39-3.1-3.1-3.1c-1.71,0-3.1,1.39-3.1,3.1v0.75h6.2V345.98z"/>
			<path class="st5" d="M227.9,343.9c0-1.71-1.39-3.1-3.1-3.1c-1.71,0-3.1,1.39-3.1,3.1v2.83h6.2V343.9z"/>
			<path class="st5" d="M239.56,342.19c0-1.71-1.39-3.1-3.1-3.1c-1.71,0-3.1,1.39-3.1,3.1v4.54h6.2V342.19z"/>
		</g>
		<path class="st5" d="M123.25,337.7c0-1.71,1.39-3.1,3.1-3.1c1.71,0,3.1,1.39,3.1,3.1v8.96h-6.2V337.7z"/>
		<path class="st5" d="M111.59,333.09c0-1.71,1.39-3.1,3.1-3.1s3.1,1.39,3.1,3.1v13.57h-6.2V333.09z"/>
		<path class="st5" d="M99.93,326c0-1.71,1.39-3.1,3.1-3.1c1.71,0,3.1,1.39,3.1,3.1v20.66h-6.2V326z"/>
		<path class="st5" d="M64.95,324.27c0-1.71,1.39-3.1,3.1-3.1c1.71,0,3.1,1.39,3.1,3.1v22.39h-6.2V324.27z"/>
		<path class="st5" d="M76.61,318.65c0-1.71,1.39-3.1,3.1-3.1l0,0c1.71,0,3.1,1.39,3.1,3.1v28.01h-6.2V318.65z"/>
		<path class="st5" d="M88.27,333.09c0-1.71,1.39-3.1,3.1-3.1c1.71,0,3.1,1.39,3.1,3.1v13.57h-6.2V333.09z"/>
		<path class="st5" d="M169.82,339.5c0-1.71,1.39-3.1,3.1-3.1c1.71,0,3.1,1.39,3.1,3.1v7.16h-6.2V339.5z"/>
		<path class="st5" d="M134.84,345.91c0-1.71,1.39-3.1,3.1-3.1c1.71,0,3.1,1.39,3.1,3.1v0.75h-6.2V345.91z"/>
		<path class="st5" d="M146.5,343.83c0-1.71,1.39-3.1,3.1-3.1c1.71,0,3.1,1.39,3.1,3.1v2.83h-6.2V343.83z"/>
		<path class="st5" d="M158.16,342.12c0-1.71,1.39-3.1,3.1-3.1c1.71,0,3.1,1.39,3.1,3.1v4.54h-6.2V342.12z"/>
		<path class="st5" d="M327.83,321c0-1.71,1.39-3.1,3.1-3.1s3.1,1.39,3.1,3.1v25.66h-6.2V321z"/>
		<path class="st5" d="M316.17,333.46c0-1.71,1.39-3.1,3.1-3.1c1.71,0,3.1,1.39,3.1,3.1v13.2h-6.2V333.46z"/>
		<path class="st5" d="M304.51,315.45c0-1.71,1.39-3.1,3.1-3.1c1.71,0,3.1,1.39,3.1,3.1v31.22h-6.2V315.45z"/>
		<path class="st5" d="M292.85,336.81c0-1.71,1.39-3.1,3.1-3.1c1.71,0,3.1,1.39,3.1,3.1v9.85h-6.2V336.81z"/>
		<path class="st5" d="M257.87,340.05c0-1.71,1.39-3.1,3.1-3.1c1.71,0,3.1,1.39,3.1,3.1v6.61h-6.2V340.05z"/>
		<path class="st5" d="M269.53,341.08c0-1.71,1.39-3.1,3.1-3.1h0c1.71,0,3.1,1.39,3.1,3.1v5.58h-6.2V341.08z"/>
		<path class="st5" d="M281.19,326.88c0-1.71,1.39-3.1,3.1-3.1c1.71,0,3.1,1.39,3.1,3.1v19.79h-6.2V326.88z"/>
	</g>
	<path class="st2" d="M1176.45,638.26h-178c-25.58,0-46.32-20.74-46.32-46.32v0c0-25.58,20.74-46.32,46.32-46.32h178
		c25.58,0,46.32,20.74,46.32,46.32v0C1222.76,617.53,1202.03,638.26,1176.45,638.26z"/>
	<path class="st2" d="M1308.98,766.92H998.45c-25.58,0-46.32-20.74-46.32-46.32v-4.48c0-25.58,20.74-46.32,46.32-46.32h310.54
		c25.58,0,46.32,20.74,46.32,46.32v4.48C1355.3,746.18,1334.56,766.92,1308.98,766.92z"/>
	<g>
		<path class="st5" d="M986.75,593.1c0-1.58-1.28-2.86-2.86-2.86l0,0c-1.58,0-2.86,1.28-2.86,2.86v6.73h5.72V593.1z"/>
		<path class="st5" d="M997.51,587.91c0-1.58-1.28-2.86-2.86-2.86c-1.58,0-2.86,1.28-2.86,2.86v11.92h5.72V587.91z"/>
		<path class="st5" d="M1008.27,583.65c0-1.58-1.28-2.86-2.86-2.86c-1.58,0-2.86,1.28-2.86,2.86v16.17h5.72V583.65z"/>
		<path class="st5" d="M1019.03,577.11c0-1.58-1.28-2.86-2.86-2.86s-2.86,1.28-2.86,2.86v22.71h5.72V577.11z"/>
		<path class="st5" d="M1051.32,593.1c0-1.58-1.28-2.86-2.86-2.86c-1.58,0-2.86,1.28-2.86,2.86v6.73h5.72V593.1z"/>
		<path class="st5" d="M1040.55,587.91c0-1.58-1.28-2.86-2.86-2.86c-1.58,0-2.86,1.28-2.86,2.86v11.92h5.72V587.91z"/>
		<path class="st5" d="M1029.79,583.65c0-1.58-1.28-2.86-2.86-2.86s-2.86,1.28-2.86,2.86v16.17h5.72V583.65z"/>
		<path class="st5" d="M1140.06,591.55c0-1.58-1.28-2.86-2.86-2.86s-2.86,1.28-2.86,2.86v8.27h5.72V591.55z"/>
		<path class="st5" d="M1150.82,587.3c0-1.58-1.28-2.86-2.86-2.86s-2.86,1.28-2.86,2.86v12.53h5.72V587.3z"/>
		<path class="st5" d="M1161.58,580.76c0-1.58-1.28-2.86-2.86-2.86c-1.58,0-2.86,1.28-2.86,2.86v19.07h5.72V580.76z"/>
		<path class="st5" d="M1193.87,596.74c0-1.58-1.28-2.86-2.86-2.86s-2.86,1.28-2.86,2.86v3.08h5.72V596.74z"/>
		<path class="st5" d="M1183.11,591.55c0-1.58-1.28-2.86-2.86-2.86l0,0c-1.58,0-2.86,1.28-2.86,2.86v8.27h5.72V591.55z"/>
		<path class="st5" d="M1172.34,587.3c0-1.58-1.28-2.86-2.86-2.86s-2.86,1.28-2.86,2.86v12.53h5.72V587.3z"/>
		<path class="st5" d="M1064.79,599.13c0-1.58-1.28-2.86-2.86-2.86c-1.58,0-2.86,1.28-2.86,2.86v0.69h5.72V599.13z"/>
		<path class="st5" d="M1075.55,597.21c0-1.58-1.28-2.86-2.86-2.86s-2.86,1.28-2.86,2.86v2.61h5.72V597.21z"/>
		<path class="st5" d="M1086.32,595.64c0-1.58-1.28-2.86-2.86-2.86c-1.58,0-2.86,1.28-2.86,2.86v4.19h5.72V595.64z"/>
		<path class="st5" d="M1097.08,593.22c0-1.58-1.28-2.86-2.86-2.86c-1.58,0-2.86,1.28-2.86,2.86v6.61h5.72V593.22z"/>
		<path class="st5" d="M1129.36,599.13c0-1.58-1.28-2.86-2.86-2.86c-1.58,0-2.86,1.28-2.86,2.86v0.69h5.72V599.13z"/>
		<path class="st5" d="M1118.6,597.21c0-1.58-1.28-2.86-2.86-2.86c-1.58,0-2.86,1.28-2.86,2.86v2.61h5.72V597.21z"/>
		<path class="st5" d="M1107.84,595.64c0-1.58-1.28-2.86-2.86-2.86s-2.86,1.28-2.86,2.86v4.19h5.72V595.64z"/>
	</g>
	<g>
		<path class="st5" d="M1262.76,723.73c0-1.4,1.13-2.53,2.53-2.53s2.53,1.13,2.53,2.53v10.54h-5.06V723.73z"/>
		<path class="st5" d="M1253.24,724.17c0-1.4,1.13-2.53,2.53-2.53l0,0c1.4,0,2.53,1.13,2.53,2.53v10.1h-5.06V724.17z"/>
		<path class="st5" d="M1243.72,712.7c0-1.4,1.13-2.53,2.53-2.53c1.4,0,2.53,1.13,2.53,2.53v21.57h-5.06V712.7z"/>
		<path class="st5" d="M1234.2,722.05c0-1.4,1.13-2.53,2.53-2.53c1.4,0,2.53,1.13,2.53,2.53v12.22h-5.06V722.05z"/>
		<path class="st5" d="M1205.65,724.35c0-1.4,1.13-2.53,2.53-2.53c1.4,0,2.53,1.13,2.53,2.53v9.92h-5.06V724.35z"/>
		<path class="st5" d="M1215.17,717.95c0-1.4,1.13-2.53,2.53-2.53c1.4,0,2.53,1.13,2.53,2.53v16.32h-5.06V717.95z"/>
		<path class="st5" d="M1224.69,722.03c0-1.4,1.13-2.53,2.53-2.53c1.4,0,2.53,1.13,2.53,2.53v12.24h-5.06V722.03z"/>
		<path class="st5" d="M1129.87,702.82c0-1.4,1.13-2.53,2.53-2.53l0,0c1.4,0,2.53,1.13,2.53,2.53v31.45h-5.06V702.82z"/>
		<path class="st5" d="M1120.35,710.67c0-1.4,1.13-2.53,2.53-2.53s2.53,1.13,2.53,2.53v23.6h-5.06V710.67z"/>
		<path class="st5" d="M1110.84,706.91c0-1.4,1.13-2.53,2.53-2.53c1.4,0,2.53,1.13,2.53,2.53v27.36h-5.06V706.91z"/>
		<path class="st5" d="M1101.32,701.13c0-1.4,1.13-2.53,2.53-2.53c1.4,0,2.53,1.13,2.53,2.53v33.14h-5.06V701.13z"/>
		<path class="st5" d="M1072.77,730.81c0-1.4,1.13-2.53,2.53-2.53c1.4,0,2.53,1.13,2.53,2.53v3.46h-5.06V730.81z"/>
		<path class="st5" d="M1082.29,713.78c0-1.4,1.13-2.53,2.53-2.53c1.4,0,2.53,1.13,2.53,2.53v20.49h-5.06V713.78z"/>
		<path class="st5" d="M1091.8,719.97c0-1.4,1.13-2.53,2.53-2.53s2.53,1.13,2.53,2.53v14.3h-5.06V719.97z"/>
		<path class="st5" d="M1024.14,726.95c0-1.4,1.13-2.53,2.53-2.53s2.53,1.13,2.53,2.53v7.32h-5.06V726.95z"/>
		<path class="st5" d="M1014.63,723.19c0-1.4,1.13-2.53,2.53-2.53s2.53,1.13,2.53,2.53v11.08h-5.06V723.19z"/>
		<path class="st5" d="M1005.11,717.41c0-1.4,1.13-2.53,2.53-2.53c1.4,0,2.53,1.13,2.53,2.53v16.86h-5.06V717.41z"/>
		<path class="st5" d="M976.56,715.99c0-1.4,1.13-2.53,2.53-2.53c1.4,0,2.53,1.13,2.53,2.53v18.28h-5.06V715.99z"/>
		<path class="st5" d="M986.08,711.41c0-1.4,1.13-2.53,2.53-2.53l0,0c1.4,0,2.53,1.13,2.53,2.53v22.86h-5.06V711.41z"/>
		<path class="st5" d="M995.59,723.19c0-1.4,1.13-2.53,2.53-2.53c1.4,0,2.53,1.13,2.53,2.53v11.08h-5.06V723.19z"/>
		<path class="st5" d="M1329.97,723.68c0-1.4,1.13-2.53,2.53-2.53h0c1.4,0,2.53,1.13,2.53,2.53v10.59h-5.06V723.68z"/>
		<path class="st5" d="M1320.46,725.88c0-1.4,1.13-2.53,2.53-2.53s2.53,1.13,2.53,2.53v8.39h-5.06V725.88z"/>
		<path class="st5" d="M1310.94,723.09c0-1.4,1.13-2.53,2.53-2.53c1.4,0,2.53,1.13,2.53,2.53v11.18h-5.06V723.09z"/>
		<path class="st5" d="M1301.42,729.39c0-1.4,1.13-2.53,2.53-2.53s2.53,1.13,2.53,2.53v4.88h-5.06V729.39z"/>
		<path class="st5" d="M1272.87,729.28c0-1.4,1.13-2.53,2.53-2.53c1.4,0,2.53,1.13,2.53,2.53v4.99h-5.06V729.28z"/>
		<path class="st5" d="M1282.39,725.26c0-1.4,1.13-2.53,2.53-2.53c1.4,0,2.53,1.13,2.53,2.53v9.01h-5.06V725.26z"/>
		<path class="st5" d="M1291.9,715.63c0-1.4,1.13-2.53,2.53-2.53s2.53,1.13,2.53,2.53v18.64h-5.06V715.63z"/>
		<path class="st5" d="M1062.15,728.43c0-1.4,1.13-2.53,2.53-2.53c1.4,0,2.53,1.13,2.53,2.53v5.84h-5.06V728.43z"/>
		<path class="st5" d="M1033.6,733.66c0-1.4,1.13-2.53,2.53-2.53s2.53,1.13,2.53,2.53v0.61h-5.06V733.66z"/>
		<path class="st5" d="M1043.12,731.96c0-1.4,1.13-2.53,2.53-2.53c1.4,0,2.53,1.13,2.53,2.53v2.31h-5.06V731.96z"/>
		<path class="st5" d="M1052.64,730.57c0-1.4,1.13-2.53,2.53-2.53s2.53,1.13,2.53,2.53v3.7h-5.06V730.57z"/>
		<path class="st5" d="M1196.1,713.32c0-1.4,1.13-2.53,2.53-2.53s2.53,1.13,2.53,2.53v20.95h-5.06V713.32z"/>
		<path class="st5" d="M1186.58,723.5c0-1.4,1.13-2.53,2.53-2.53s2.53,1.13,2.53,2.53v10.77h-5.06V723.5z"/>
		<path class="st5" d="M1177.07,708.79c0-1.4,1.13-2.53,2.53-2.53c1.4,0,2.53,1.13,2.53,2.53v25.48h-5.06V708.79z"/>
		<path class="st5" d="M1167.55,726.23c0-1.4,1.13-2.53,2.53-2.53c1.4,0,2.53,1.13,2.53,2.53v8.04h-5.06V726.23z"/>
		<path class="st5" d="M1139,728.87c0-1.4,1.13-2.53,2.53-2.53s2.53,1.13,2.53,2.53v5.4H1139V728.87z"/>
		<path class="st5" d="M1148.52,729.72c0-1.4,1.13-2.53,2.53-2.53h0c1.4,0,2.53,1.13,2.53,2.53v4.55h-5.06V729.72z"/>
		<path class="st5" d="M1158.03,718.12c0-1.4,1.13-2.53,2.53-2.53c1.4,0,2.53,1.13,2.53,2.53v16.15h-5.06V718.12z"/>
	</g>
	<g>
		<path class="st2" d="M696.66,636.84c0-3.12,2-4.68,3.76-6.06c1.63-1.27,3.04-2.38,3.04-4.57c0-2.2-1.41-3.29-3.03-4.57
			c-1.76-1.38-3.76-2.94-3.76-6.06c0-3.12,2-4.68,3.76-6.06c1.63-1.27,3.03-2.37,3.03-4.57s-1.41-3.3-3.04-4.57
			c-1.76-1.38-3.76-2.94-3.76-6.06c0-3.12,2-4.68,3.76-6.05c1.63-1.27,3.03-2.37,3.03-4.57s-1.41-3.29-3.03-4.57
			c-1.76-1.38-3.76-2.94-3.76-6.05c0-3.12,2-4.68,3.76-6.05c1.63-1.27,3.03-2.37,3.03-4.57c0-2.19-1.41-3.29-3.03-4.56
			c-1.76-1.38-3.76-2.94-3.76-6.05c0-3.12,2-4.68,3.76-6.06c1.63-1.27,3.03-2.37,3.03-4.57h1.89c0,3.12-2,4.68-3.76,6.06
			c-1.63,1.27-3.03,2.37-3.03,4.57c0,2.19,1.41,3.29,3.03,4.56c1.76,1.38,3.76,2.94,3.76,6.05c0,3.12-2,4.68-3.76,6.05
			c-1.63,1.27-3.03,2.37-3.03,4.57s1.41,3.29,3.03,4.57c1.76,1.38,3.76,2.94,3.76,6.05s-2,4.68-3.76,6.05
			c-1.63,1.27-3.03,2.37-3.03,4.57c0,2.2,1.41,3.29,3.03,4.57c1.76,1.38,3.76,2.94,3.76,6.06c0,3.12-2,4.68-3.76,6.06
			c-1.63,1.27-3.04,2.37-3.04,4.57c0,2.2,1.41,3.29,3.03,4.57c1.76,1.38,3.76,2.94,3.76,6.06c0,3.12-2,4.68-3.76,6.06
			c-1.63,1.27-3.04,2.37-3.04,4.57c0,2.2,1.41,3.3,3.04,4.57c1.76,1.38,3.76,2.94,3.76,6.06h-1.89c0-2.2-1.41-3.3-3.04-4.57
			C698.66,641.52,696.66,639.96,696.66,636.84z"/>
	</g>
	<g>
		<path class="st2" d="M1255.57,469.79c0-3.12,2-4.68,3.76-6.06c1.63-1.27,3.04-2.37,3.04-4.57c0-2.2-1.41-3.29-3.03-4.57
			c-1.76-1.38-3.76-2.94-3.76-6.06c0-3.12,2-4.68,3.76-6.06c1.63-1.27,3.03-2.37,3.03-4.57c0-2.2-1.41-3.3-3.04-4.57
			c-1.76-1.38-3.76-2.94-3.76-6.06c0-3.12,2-4.68,3.76-6.05c1.63-1.27,3.03-2.37,3.03-4.57s-1.41-3.29-3.03-4.57
			c-1.76-1.38-3.76-2.94-3.76-6.05c0-3.12,2-4.68,3.76-6.05c1.63-1.27,3.03-2.37,3.03-4.57c0-2.19-1.41-3.29-3.03-4.56
			c-1.76-1.38-3.76-2.94-3.76-6.05c0-3.12,2-4.68,3.76-6.06c1.63-1.27,3.03-2.37,3.03-4.57h1.89c0,3.12-2,4.68-3.76,6.06
			c-1.63,1.27-3.03,2.37-3.03,4.57c0,2.19,1.41,3.29,3.03,4.56c1.76,1.38,3.76,2.94,3.76,6.05c0,3.12-2,4.68-3.76,6.05
			c-1.63,1.27-3.03,2.37-3.03,4.57s1.41,3.29,3.03,4.57c1.76,1.38,3.76,2.94,3.76,6.05c0,3.12-2,4.68-3.76,6.05
			c-1.63,1.27-3.03,2.37-3.03,4.57c0,2.2,1.41,3.29,3.03,4.57c1.76,1.38,3.76,2.94,3.76,6.06c0,3.12-2,4.68-3.76,6.06
			c-1.63,1.27-3.04,2.37-3.04,4.57c0,2.2,1.41,3.29,3.03,4.57c1.76,1.38,3.76,2.94,3.76,6.06c0,3.12-2,4.68-3.76,6.06
			c-1.63,1.27-3.04,2.37-3.04,4.57c0,2.2,1.41,3.3,3.04,4.57c1.76,1.38,3.76,2.94,3.76,6.06h-1.89c0-2.2-1.41-3.3-3.04-4.57
			C1257.57,474.47,1255.57,472.9,1255.57,469.79z"/>
	</g>
</g>
<g id="Layer_5">
</g>
</svg>
